<svg id="_0510_pie_chart_1" data-name="0510_pie_chart_1" xmlns="http://www.w3.org/2000/svg" viewBox="0 0 500 500" data-imageid="chart-1-23" imageName="Chart 1" class="illustrations_image" style="width: 187px;"><defs><style>.cls-1_chart-1-23{fill:#f56132;}.cls-2_chart-1-23{fill:#093f68;}.cls-3_chart-1-23{fill:#ffbc0e;}.cls-4_chart-1-23{fill:#70cc40;}.cls-5_chart-1-23{fill:#dfeaef;}.cls-6_chart-1-23{fill:#68e1fd;}.cls-7_chart-1-23{fill:#fff;}</style></defs><g id="graph_chart-1-23"><rect class="cls-1_chart-1-23" x="277.3" y="217.33" width="44.29" height="32.93"/><path class="cls-2_chart-1-23" d="M321.6,252.49H277.3a2.24,2.24,0,0,1-2.24-2.24V217.33a2.24,2.24,0,0,1,2.24-2.25h44.3a2.24,2.24,0,0,1,2.24,2.25v32.92A2.24,2.24,0,0,1,321.6,252.49ZM279.54,248h39.82V219.57H279.54Z"/><rect class="cls-3_chart-1-23" x="321.6" y="184.4" width="44.29" height="65.85"/><path class="cls-2_chart-1-23" d="M365.89,252.49H321.6a2.24,2.24,0,0,1-2.24-2.24V184.4a2.24,2.24,0,0,1,2.24-2.24h44.29a2.24,2.24,0,0,1,2.24,2.24v65.85A2.24,2.24,0,0,1,365.89,252.49ZM323.84,248h39.81V186.64H323.84Z"/><rect class="cls-4_chart-1-23" x="365.89" y="152.01" width="44.29" height="98.24"/><path class="cls-2_chart-1-23" d="M410.18,252.49H365.89a2.24,2.24,0,0,1-2.24-2.24V152a2.24,2.24,0,0,1,2.24-2.24h44.29a2.24,2.24,0,0,1,2.24,2.24v98.24A2.24,2.24,0,0,1,410.18,252.49ZM368.13,248h39.81V154.25H368.13Z"/></g><g id="arrow_chart-1-23"><path class="cls-5_chart-1-23" d="M277.31,180.71a2.24,2.24,0,0,1-1.24-4.11L394.66,98.73a2.24,2.24,0,1,1,2.46,3.74L278.53,180.34A2.21,2.21,0,0,1,277.31,180.71Z"/><path class="cls-5_chart-1-23" d="M390.36,124.81a2.13,2.13,0,0,1-.55-.07,2.23,2.23,0,0,1-1.62-2.72l4.87-19.34-20.51-1.18a2.24,2.24,0,0,1,.26-4.48L396,98.36a2.25,2.25,0,0,1,2.05,2.79l-5.54,22A2.24,2.24,0,0,1,390.36,124.81Z"/></g><g id="chart_chart-1-23"><path class="cls-6_chart-1-23 targetColor" d="M252.11,250.25H430.69c0,98-80.62,178.59-178.58,178.59S73.52,348.22,73.52,250.25c0-97.53,79.9-177.95,177.43-178.58Z" style="fill: rgb(104, 225, 253);"/><path class="cls-2_chart-1-23" d="M252.11,431.08c-48,0-93.31-18.9-127.62-53.21S71.28,298.23,71.28,250.25c0-99.06,80.59-180.18,179.65-180.82h0a2.24,2.24,0,0,1,2.24,2.22L254.33,248H430.69a2.24,2.24,0,0,1,2.24,2.24c0,48-18.9,93.3-53.21,127.62S300.09,431.08,252.11,431.08ZM248.72,73.94c-95.57,1.82-173,80.45-173,176.31,0,46.78,18.43,91,51.9,124.45s77.66,51.9,124.45,51.9,91-18.43,124.44-51.9c32.93-32.93,51.31-76.26,51.89-122.21H252.11a2.24,2.24,0,0,1-2.25-2.22Z"/><path class="cls-7_chart-1-23" d="M252.11,250.25H430.69A178.63,178.63,0,0,1,379.92,375Z"/><path class="cls-2_chart-1-23" d="M379.92,377.22a2.22,2.22,0,0,1-1.56-.64L250.54,251.86a2.25,2.25,0,0,1,1.57-3.85H430.69a2.24,2.24,0,0,1,2.24,2.24,180.75,180.75,0,0,1-51.41,126.29,2.22,2.22,0,0,1-1.57.68ZM257.61,252.49,379.87,371.8a176.33,176.33,0,0,0,48.57-119.31Z"/><path class="cls-2_chart-1-23" d="M272.64,272.53a2.24,2.24,0,0,1-1.6-3.81l19.6-20a2.24,2.24,0,0,1,3.2,3.14l-19.6,20A2.23,2.23,0,0,1,272.64,272.53Z"/><path class="cls-2_chart-1-23" d="M290.89,290.34a2.24,2.24,0,0,1-1.6-3.8l37-37.86a2.24,2.24,0,0,1,3.2,3.14l-37,37.85A2.23,2.23,0,0,1,290.89,290.34Z"/><path class="cls-2_chart-1-23" d="M309.16,308.16a2.25,2.25,0,0,1-1.61-3.81L362,248.68a2.24,2.24,0,0,1,3.2,3.14l-54.42,55.66A2.24,2.24,0,0,1,309.16,308.16Z"/><path class="cls-2_chart-1-23" d="M327.41,326a2.21,2.21,0,0,1-1.57-.64,2.24,2.24,0,0,1,0-3.17l71.84-73.48a2.25,2.25,0,0,1,3.21,3.14L329,325.29A2.24,2.24,0,0,1,327.41,326Z"/><path class="cls-2_chart-1-23" d="M345.66,343.78a2.21,2.21,0,0,1-1.57-.64,2.24,2.24,0,0,1,0-3.17l85-86.91a2.24,2.24,0,0,1,3.2,3.14l-85,86.91A2.27,2.27,0,0,1,345.66,343.78Z"/><path class="cls-2_chart-1-23" d="M363.92,361.59a2.2,2.2,0,0,1-1.56-.64,2.24,2.24,0,0,1,0-3.17l60.36-61.73a2.24,2.24,0,1,1,3.21,3.13l-60.36,61.74A2.23,2.23,0,0,1,363.92,361.59Z"/></g></svg>